PathFileType	4	(X/Y/Z)	./resultDataOpenSim/trcMotMarkerGrf/sub10/qtm-05-06.trc
DataRate	CameraRate	NumFrames	NumMarkers	Units	OrigDataRate	OrigDataStartFrame	OrigNumFrames
250.000000	250.000000	5	24	m	250.000000	126	502
Frame#	Time	L.Toe.Tip			R.Toe.Tip			L.Ankle.Lat			R.Ankle.Lat			L.Ankle.Med			R.Ankle.Med			L.Heel			R.Heel			L.Knee.Lat			R.Knee.Lat			L.Knee.Med			R.Knee.Med			L.Thigh.Upper			R.Thigh.Upper			L.ASIS			R.ASIS			V.Sacral			L.Acromium			R.Acromium			C7			L.Elbow			R.Elbow			L.Wrist.Lat			R.Wrist.Lat
		X1	Y1	Z1	X2	Y2	Z2	X3	Y3	Z3	X4	Y4	Z4	X5	Y5	Z5	X6	Y6	Z6	X7	Y7	Z7	X8	Y8	Z8	X9	Y9	Z9	X10	Y10	Z10	X11	Y11	Z11	X12	Y12	Z12	X13	Y13	Z13	X14	Y14	Z14	X15	Y15	Z15	X16	Y16	Z16	X17	Y17	Z17	X18	Y18	Z18	X19	Y19	Z19	X20	Y20	Z20	X21	Y21	Z21	X22	Y22	Z22	X23	Y23	Z23	X24	Y24	Z24

126	0.5	-0.36842865	0.067293289	-0.20749855	-0.71590297	0.039290785	-0.048048922	-0.50144182	0.094820181	-0.21971153	-0.86118466	0.05165523	-0.023439259	-0.4846121	0.11152548	-0.13660055	-0.83281831	0.081906643	-0.10411817	-0.55851196	0.060141959	-0.16819771	-0.90649034	0.030828418	-0.076274043	-0.46862224	0.48544082	-0.21616621	-0.7386941	0.43589514	0.041451767	-0.4481458	0.45651577	-0.098076431	-0.72205355	0.44565826	-0.086716179	-0.62815528	0.8327816	-0.25428162	-0.7073228	0.84823629	0.12094031	-0.59430705	0.93868129	-0.18168113	-0.62524749	0.94372755	0.061159287	-0.80906732	0.94725147	-0.087226859	-0.66275093	1.4056784	-0.23522899	-0.68757748	1.4078951	0.08748996	-0.75370439	1.4361606	-0.081677424	-0.78493199	1.0826078	-0.30009265	-0.72891012	1.0562968	0.14981658	-0.64570434	0.88039229	-0.31770075	-0.5497038	0.88707194	0.16522887
127	0.504	-0.35079185	0.066942039	-0.20457749	-0.71591777	0.039243349	-0.048085797	-0.48427253	0.092366014	-0.21861227	-0.86116481	0.051662695	-0.02352491	-0.46857932	0.10993788	-0.1353953	-0.83267548	0.081850322	-0.10422	-0.54105834	0.056993381	-0.16745647	-0.90648311	0.030919732	-0.076340838	-0.46235837	0.48404887	-0.21558633	-0.73648469	0.43535122	0.041380124	-0.44294172	0.45542968	-0.097385309	-0.71982244	0.44512477	-0.086875858	-0.62191172	0.83192944	-0.25389959	-0.70368256	0.84757276	0.12093722	-0.58837889	0.93766516	-0.18114824	-0.62137237	0.94276606	0.061575725	-0.80449852	0.94639359	-0.088223752	-0.65747407	1.4046063	-0.23490789	-0.68255485	1.4069781	0.087765204	-0.74856312	1.4352447	-0.081398789	-0.78126722	1.082141	-0.30030852	-0.72215216	1.0549467	0.15014695	-0.64320663	0.87887463	-0.31831014	-0.54063599	0.887878	0.16413439
128	0.508	-0.33324134	0.066512823	-0.20155867	-0.71589514	0.039210556	-0.048104459	-0.46714608	0.090116337	-0.21748371	-0.86108222	0.05168022	-0.023615563	-0.45258412	0.10853197	-0.13418548	-0.83250017	0.081776319	-0.10431553	-0.52373663	0.054188345	-0.16665034	-0.90647169	0.031017057	-0.076420486	-0.45620173	0.4825366	-0.21503706	-0.73416922	0.43476652	0.041283699	-0.43791182	0.45417566	-0.096774164	-0.71726999	0.44463862	-0.086918533	-0.61544369	0.83099956	-0.25345488	-0.70000421	0.84686519	0.1209432	-0.58235892	0.93660199	-0.18057879	-0.61721128	0.94183413	0.061995483	-0.79950034	0.94545772	-0.089318346	-0.65234243	1.4034871	-0.23462231	-0.67753797	1.4059954	0.08805722	-0.74351615	1.4342772	-0.081422835	-0.77768455	1.0816287	-0.30075307	-0.71541177	1.0535719	0.15045256	-0.64066441	0.87734921	-0.31890516	-0.53160756	0.88866942	0.16302141
129	0.512	-0.3157908	0.066036189	-0.19841893	-0.71585122	0.039178927	-0.048109449	-0.45008438	0.088078316	-0.21631607	-0.86100854	0.051696086	-0.02372141	-0.43665497	0.1073073	-0.13296133	-0.8322868	0.0817002	-0.10439124	-0.50653967	0.051780849	-0.16575704	-0.90645694	0.031117587	-0.076506845	-0.45006549	0.48092222	-0.21452049	-0.73178247	0.43414861	0.041163937	-0.43299731	0.45276246	-0.096213013	-0.71449908	0.44415872	-0.086908982	-0.6087444	0.83000821	-0.2529581	-0.69630241	0.84613196	0.12094764	-0.57628809	0.93549122	-0.17999251	-0.6126836	0.94095058	0.062412675	-0.79376169	0.94436569	-0.090559467	-0.64717741	1.4023184	-0.2343347	-0.67253134	1.4049606	0.088374231	-0.73862519	1.4332597	-0.081925819	-0.77400193	1.0810714	-0.30114278	-0.70867881	1.0521645	0.15073442	-0.6381881	0.87579985	-0.3195126	-0.5226202	0.88944155	0.16189826
130	0.516	-0.29846731	0.065550691	-0.19513899	-0.71580881	0.039120603	-0.048110582	-0.43310233	0.086250263	-0.21510721	-0.86088877	0.051729892	-0.023826972	-0.42080549	0.10626951	-0.1316951	-0.83203627	0.081643152	-0.10444773	-0.48950954	0.049766328	-0.1648635	-0.90644043	0.031223355	-0.076591609	-0.44390401	0.47921416	-0.2140285	-0.72936168	0.43350447	0.041017609	-0.42818563	0.45118501	-0.095707214	-0.71169616	0.4436248	-0.086938548	-0.60207702	0.82893752	-0.25246246	-0.69261313	0.84539069	0.12096837	-0.57018537	0.93433581	-0.1794011	-0.60796422	0.94007895	0.062806922	-0.78739402	0.94310808	-0.09186647	-0.6418293	1.4010971	-0.23401338	-0.66750932	1.40388	0.088700478	-0.73382465	1.4321953	-0.082737005	-0.76994987	1.0804707	-0.30100969	-0.70192723	1.050705	0.1509954	-0.63583251	0.87420584	-0.32014413	-0.5136704	0.89018967	0.16076863
